# xmcd
#
# Track frame offsets:
#	150
#	13059
#	25776
#	36880
#	50740
#	62566
#	72268
#	84009
#	97816
#	110477
#	122894
#	139034
#	151503
#	169156
#	177985
#	191324
#	204495
#	217126
#	231929
#	244742
#	257971
#	273759
#	291321
#	303511
#	316373
#	330779
#	343339
#
# Disc length: 4755 seconds
#
# Revision: 1
# Processed by: cddbd v1.5.2PL0 Copyright (c) Steve Scherf et al.
# Submitted via: audiograbber 1.83.01
#
DISCID=8012911b
DTITLE=Various Artist - RTB22
DYEAR=1900
DGENRE=
TTITLE0=Metronome All Stars - Riffamarole
TTITLE1=Jo Stafford with Metronome All Stars - Baby Won't You Please Come Home
TTITLE2=Jack Guthrie - The Clouds Rained Trouble Down
TTITLE3=Charlie Barnett - Dark Bayou
TTITLE4=Luckey Roberts - Railroad Blues
TTITLE5=George Barnes Octet - South Side Blues
TTITLE6=Texas Ruby - Travelin' Blues
TTITLE7=Ivy Anderson with Lucky Thompson - Empty Bed Blues
TTITLE8=Lena Horne - Sometimes I Feel Like A Motherless Child
TTITLE9=Muddy Waters - Burying Ground Blues
TTITLE10=Bob Wills with Junior Bernard - Talkin' 'Bout You
TTITLE11=Johnny Shines - Evil Hearted Woman Blues
TTITLE12=Django Reinhardt with Duke Ellington Orchestra - Blues Riff
TTITLE13=Merle Travis - Lost John Boogie
TTITLE14=Charles Brown - When Your Lover Has Gone
TTITLE15=Pete Johnson - Pete's Lonesome Blues
TTITLE16=Dorothy Donegan - St Louis Blues
TTITLE17=Stan Kenton - Intermission Riff
TTITLE18=Leo Watson - The Snake Pit
TTITLE19=The Kings of Harmony - God Shall Wipe All Tears Away
TTITLE20=Lennie Tristano - Billy Bauer - Blues
TTITLE21=Lester Young, Nat Cole, Buddy Rich - Back to the Land
TTITLE22=Cousin Emmy and her Kinfolk - Ruby
TTITLE23=Buddy Johnson - Walk 'Em
TTITLE24=Stan Kenton, June Christy - Willow Weep for Me
TTITLE25=Duke Ellington - Diminuendo in Blue
TTITLE26=Boyd Raeburn, Ginny Powell - St Louis Blues
EXTD=
EXTT0=Bill Coleman, Buster Bailey, Nat Cole, Max Roach
EXTT1=
EXTT2=
EXTT3=arr Dennis Sandole
EXTT4=
EXTT5=
EXTT6=
EXTT7=
EXTT8=
EXTT9=
EXTT10=
EXTT11=
EXTT12=
EXTT13=
EXTT14=
EXTT15=
EXTT16=
EXTT17=
EXTT18=
EXTT19=
EXTT20=
EXTT21=
EXTT22=
EXTT23=
EXTT24=
EXTT25=
EXTT26=
PLAYORDER=
